<svg xmlns="http://www.w3.org/2000/svg" viewBox="0 0 183.55 60.8"><defs><style>.f07834fd-665d-4084-b915-436b3ed6d38f{fill:#fff;}</style></defs><title>资源 2</title><g id="c5825cc9-cefd-4ac0-9c8e-fd431f12cc42" data-name="图层 2"><g id="4f69c2d6-7fae-48cc-b75c-87cb603c3002" data-name="图层 1"><path class="f07834fd-665d-4084-b915-436b3ed6d38f" d="M85.47,22.49H80.71V20.33H75.42V19.25h5.29V17.2h4.76v2.05H91.3V17.2h4.86v2.05h5.19v1.08H96.16v2.05H91.3V20.33H85.47ZM75.85,41.82V40.74h.54V28.11H79.2V40.64l1.08-.11v-12l.33-.43L81.47,27c.5-.72.61-1.3.32-1.73a2.72,2.72,0,0,0-1.94-.65h-4v-.86h6.38c1.94.07,3,.61,3.24,1.61h4.32V23h4.75V25.4h5.73v.87h-8c-.21.22-.68.68-1.4,1.4s-1.3,1.19-1.52,1.41c-.5.57-.64,1-.43,1.29s.69.51,1.41.44a18.65,18.65,0,0,0,4.43-.44c-.51-1.08-1-2.12-1.52-3.13h4a7,7,0,0,0,.54,1.3,11.47,11.47,0,0,0,1.08,2.05,5.35,5.35,0,0,0,1.51,1.84q-4.53.65-5.4-1.73a11,11,0,0,1-6.15,1.73c-1.73.07-2.89-.22-3.46-.87s-.4-1.73.54-2.81a32,32,0,0,1,2.59-2.48H85.36c-.07.22-.15.43-.22.65-.29.43-.65,1-1.08,1.73-.21.21-.32.36-.32.43v4.53h1.83v.87H83.74v5.4a6.41,6.41,0,0,0,1.94-.54Q84.71,41.94,75.85,41.82Zm10.59-2.48L86.65,33h3.14l-.22,6.91q.11,3-4.64,2.48A4.69,4.69,0,0,0,86.44,39.34Zm7.45,2.81h-3V33h3Zm4.43.21h-1A2,2,0,0,1,95.08,40V33h3.24v6.59c-.07,1,.14,1.47.65,1.4.72,0,1.19-.9,1.4-2.7Q101.35,42.15,98.32,42.36Z"/><path class="f07834fd-665d-4084-b915-436b3ed6d38f" d="M123.81,19.14H118.3v2.48h10.27v1H118.3v2.26h3q5.07-.11,5.51,2.71A11,11,0,0,0,128.78,32q-5.19.33-6.16-2.48c-.14-.36-.28-.76-.43-1.19a5.79,5.79,0,0,1-.32-1.29c-.15-.72-.76-1.09-1.84-1.09H118.3v4.43h-4.64V25.94h-.11A5.58,5.58,0,0,0,109.88,27a8.73,8.73,0,0,1-.43,1.51v.32a3.31,3.31,0,0,1-3.24,2.92h3.88V33.4c.36-1.15,1.3-1.73,2.81-1.73h9.4q4.76-.21,4.54,3.13v4.32q.31,3.24-4.32,3h-9.73c-1.58,0-2.48-.51-2.7-1.51v1.51h-4.64V31.89h-2.59c1.15-.8,2.09-3.17,2.81-7.13h4.86A13.78,13.78,0,0,1,110,26.7a3.68,3.68,0,0,1,3.56-1.84h.11V22.6H103.29v-1h10.37V19.14H104.8V18.06h14.37c1.51.15,2.3-.18,2.37-1h6.16C127.12,18.46,125.83,19.14,123.81,19.14ZM110.09,33.72v2.7h11.78V34.69c.07-1.29-.69-1.94-2.27-1.94h-7.45A2.66,2.66,0,0,0,110.09,33.72Zm11.78,5.73v-2H110.09v2.38a1.89,1.89,0,0,0,1.84,1.19h7.67C121.11,41.07,121.87,40.53,121.87,39.45Z"/><path class="f07834fd-665d-4084-b915-436b3ed6d38f" d="M156.86,31.24H130.62V30.16h10.8V26.59h-8.21V25.51h8.21V22.06h-9.83V21h24.3v1.08h-9.83v3.45h8v1.08h-8v3.57h10.8Zm-.75,4.53h-8.32q5.63,5.63,8.75,6.59-7.35.44-9.07-1.4A21.36,21.36,0,0,1,144,37.61c-.43.43-1,1-1.84,1.84a8.83,8.83,0,0,0-1.62,1.4q-2.48,2.16-9.93,1.51,3.34-.75,9.39-6.59h-8.2v-1h9.61V32h4.75V34.8h9.94ZM133.64,17.3h5.62a5.32,5.32,0,0,0,2.81,2.81q-4.75.33-6-.21C135,19.68,134.22,18.82,133.64,17.3Zm14.26,0h5.62c-.65,1.52-1.48,2.38-2.49,2.6s-2.84.43-5.94.21A5.88,5.88,0,0,0,147.9,17.3Z"/><path class="f07834fd-665d-4084-b915-436b3ed6d38f" d="M163.13,42.36h-4.21V18.17h4.21v1.62a2.93,2.93,0,0,1,2.81-1.51h12.74q5,0,4.87,3.67V38.8c.07,2.45-1.27,3.63-4,3.56H165.72c-1.44,0-2.3-.54-2.59-1.62Zm0-21.71V39.77a1.53,1.53,0,0,0,1.73,1.41h12.2c1.59,0,2.38-.87,2.38-2.6V21.73a2.1,2.1,0,0,0-2.38-2.37H165.51A2.5,2.5,0,0,0,163.13,20.65Zm8.75,14.69v-7h-2a65.26,65.26,0,0,1-.65,7.45c-.07,2.45-2,3.5-5.83,3.14A5.39,5.39,0,0,0,165.29,35c.07-.87.22-2.31.43-4.32a12.78,12.78,0,0,1,.22-2.38h-2.27V27.24h15v1.08h-2.91V35c-.08,1.15.25,1.66,1,1.51q1.08.44,1.73-3.56c.43,3.88-.33,5.72-2.27,5.5h-1.08Q171.66,38.69,171.88,35.34Zm5.29-11.88h-12.1V22.38h12.1Z"/><path class="f07834fd-665d-4084-b915-436b3ed6d38f" d="M80.23,51.37H76.07V51h3.58q.36,0,.36-.33V49c0-.23-.11-.35-.32-.35H77.18c-.76,0-1.15-.39-1.15-1.22v-.79a1,1,0,0,1,1.15-1.18h4.16v.39H77.75c-.24,0-.34.12-.32.36v1.68c0,.27.08.39.32.36h2.48a1,1,0,0,1,1.18,1.18v.76A1,1,0,0,1,80.23,51.37Z"/><path class="f07834fd-665d-4084-b915-436b3ed6d38f" d="M84.55,47.5h0a.83.83,0,0,1,.65-.5h1.93c.74,0,1.11.39,1.11,1.18v3.19H86.92V47.71c0-.21-.09-.32-.29-.32h-1.5a.81.81,0,0,0-.58.43v3.55H83.19V45.42h1.36Z"/><path class="f07834fd-665d-4084-b915-436b3ed6d38f" d="M93.62,51.37v-.43a.75.75,0,0,1-.65.43H91c-.74,0-1.1-.38-1.08-1.15V47h1.4v3.66c0,.21.06.32.25.32h1.61a.38.38,0,0,0,.44-.36V47H95v4.34Z"/><path class="f07834fd-665d-4084-b915-436b3ed6d38f" d="M101.12,50.58l1.51-2.11-2-3H102l1.33,2,1.11-2h1.29L104,48.32l1.47,2.19a4.3,4.3,0,0,0,.82.83h-.36c-1.1.07-1.74-.23-1.93-.9l-.72-1-.72,1.15a1.7,1.7,0,0,1-.79.71,5.37,5.37,0,0,1-1.4.11A2.92,2.92,0,0,0,101.12,50.58Z"/><path class="f07834fd-665d-4084-b915-436b3ed6d38f" d="M109.25,47v4.37h-1.4V47Zm-.07-1.44v1h-1.26v-1Z"/><path class="f07834fd-665d-4084-b915-436b3ed6d38f" d="M115.91,51.37h-1.4v-.43a.68.68,0,0,1-.64.43h-2.05c-.67,0-1-.31-1-1v-.94a.88.88,0,0,1,1-.93h2.44a.23.23,0,0,0,.25-.21v-.68a.23.23,0,0,0-.25-.22H111V47h3.87c.72,0,1.08.39,1.08,1.15Zm-3.73-2.19v1.51c0,.21.06.31.25.29h1.51c.33,0,.52-.13.57-.4V48.86h-2.08C112.24,48.86,112.16,49,112.18,49.18Z"/><path class="f07834fd-665d-4084-b915-436b3ed6d38f" d="M118.66,47v.47a.71.71,0,0,1,.61-.47h2a1,1,0,0,1,1.11,1.15v3.19h-1.36V47.71c0-.21-.09-.32-.29-.32h-1.5c-.34,0-.54.17-.61.36v3.62h-1.33V47Z"/><path class="f07834fd-665d-4084-b915-436b3ed6d38f" d="M124.35,52.55h3c.26,0,.39-.12.39-.43V50.9a.71.71,0,0,1-.72.44h-1.93c-.74,0-1.1-.36-1.08-1.15v-2c0-.79.34-1.18,1.08-1.18h2.11a.71.71,0,0,1,.54.46V47h1.43v4.69c0,.82-.38,1.23-1.07,1.26h-3.73Zm3.37-2V47.79a.49.49,0,0,0-.39-.4h-1.65c-.22,0-.31.1-.29.29v3c0,.22.07.33.29.33h1.57C127.54,51,127.69,50.82,127.72,50.58Z"/><path class="f07834fd-665d-4084-b915-436b3ed6d38f" d="M138.42,49.69l2-4.23h1.86v5.91h-1.36v-5l-2.33,5h-.29l-2.32-5v5h-1.37V45.46h1.87Z"/><path class="f07834fd-665d-4084-b915-436b3ed6d38f" d="M145.36,49.15v1.54a.26.26,0,0,0,.29.32H149v.36h-3.91A1,1,0,0,1,144,50.22v-2A1,1,0,0,1,145.11,47h3c.72,0,1.07.39,1.07,1.15v.32c-.07.6-.45.92-1.14,1H146A.71.71,0,0,1,145.36,49.15Zm2.48-.61v-.83c0-.21-.1-.32-.29-.32h-1.9c-.19,0-.27.11-.25.32v1q.07.33.57.36h1.26C147.66,49.16,147.86,49,147.84,48.54Z"/><path class="f07834fd-665d-4084-b915-436b3ed6d38f" d="M152.06,47v4.37h-1.4V47ZM152,45.56v1h-1.26v-1Z"/><path class="f07834fd-665d-4084-b915-436b3ed6d38f" d="M159.82,51.34V48.83l-2.15-3.37h1.39l1.58,2.72,1.65-2.72h1.26l-2.19,3.4v2.48Z"/><path class="f07834fd-665d-4084-b915-436b3ed6d38f" d="M168.59,51.37v-.43a.73.73,0,0,1-.64.43h-2c-.74,0-1.1-.38-1.07-1.15V47h1.4v3.66c0,.21.06.32.25.32h1.61a.37.37,0,0,0,.43-.36V47H170v4.34Z"/><path class="f07834fd-665d-4084-b915-436b3ed6d38f" d="M176.54,51.37h-1.4v-.43a.68.68,0,0,1-.64.43h-2.05c-.67,0-1-.31-1-1v-.94a.88.88,0,0,1,1-.93h2.44a.23.23,0,0,0,.25-.21v-.68a.23.23,0,0,0-.25-.22h-3.3V47h3.87c.72,0,1.08.39,1.08,1.15Zm-3.73-2.19v1.51c0,.21.06.31.25.29h1.51c.33,0,.52-.13.57-.4V48.86h-2.08C172.87,48.86,172.79,49,172.81,49.18Z"/><path class="f07834fd-665d-4084-b915-436b3ed6d38f" d="M179.29,47v.47a.71.71,0,0,1,.61-.47h2a1,1,0,0,1,1.11,1.15v3.19h-1.36V47.71c0-.21-.09-.32-.29-.32h-1.5c-.34,0-.54.17-.61.36v3.62H178V47Z"/><path class="f07834fd-665d-4084-b915-436b3ed6d38f" d="M57.45,20.51c2,0,3.69-1.25,3.69-4.46S59.48.2,57.45.2s-3.69,12.63-3.69,15.85,1.65,4.46,3.69,4.46"/><path class="f07834fd-665d-4084-b915-436b3ed6d38f" d="M56.29,21.78v4.27a1.16,1.16,0,1,0,2.32,0V21.78a4.28,4.28,0,0,1-2.32,0"/><path class="f07834fd-665d-4084-b915-436b3ed6d38f" d="M58.5,53.26A38.66,38.66,0,0,0,62.27,50a37,37,0,0,0,7-9.71,35.48,35.48,0,0,0-3.77,3.3,36.9,36.9,0,0,0-7,9.69"/><path class="f07834fd-665d-4084-b915-436b3ed6d38f" d="M66.08,31.51c-.6-.26-1.22-.5-1.84-.73A40.56,40.56,0,0,0,23.88,58.72l1.12.37.05,0c.47.15.93.28,1.4.41l.29.07,1.2.3.45.09.56.12A40.58,40.58,0,0,1,66.08,31.51"/><path class="f07834fd-665d-4084-b915-436b3ed6d38f" d="M69.93,33.43q-1-.6-2.1-1.11a39.13,39.13,0,0,0-34.3,28.39l.63,0,.65,0,.92,0H37c.37,0,.74,0,1.11,0A40.63,40.63,0,0,1,69.93,33.43"/><path class="f07834fd-665d-4084-b915-436b3ed6d38f" d="M49.66,49.17A40.76,40.76,0,0,0,43.74,60a37.14,37.14,0,0,0,6.93-2.18A40.25,40.25,0,0,1,56,48.44c4.07-5.34,9.47-10.3,15.15-13l.35-.9A40.36,40.36,0,0,0,49.66,49.17"/><path class="f07834fd-665d-4084-b915-436b3ed6d38f" d="M61.14,29.8q-1.7-.45-3.42-.75l-.14,0-1.08-.16-.15,0c-1.11-.15-2.22-.24-3.34-.29h-.16c-.34,0-.67,0-1,0H50.39q-1,0-2.07.12l-.22,0-.89.09-.46.06L45.9,29l-.5.08c-.51.09-1,.18-1.54.29-.15,0-.3.06-.45.09l-.73.18-.62.16-.7.19-.67.2-.65.2-1,.34-.68.25-.85.33-.55.24-.78.34-.52.24-.93.46-.33.17c-.41.21-.82.43-1.22.66l-.41.24-.84.51-.44.28-.87.58-.34.23c-.39.28-.78.56-1.16.86l-.26.2L28,37l-.37.31L26.8,38l-.34.3c-.37.34-.73.68-1.08,1a36.82,36.82,0,0,0-9.29,15.53c.32.21.64.41,1,.6s.45.27.68.4L18,56l.91.49,0,0,1,.49A39.16,39.16,0,0,1,61.14,29.8"/><path class="f07834fd-665d-4084-b915-436b3ed6d38f" d="M0,31.64a37,37,0,0,0,13,21,43.08,43.08,0,0,1,20.18-22A37.06,37.06,0,0,0,0,31.64Z"/><path class="f07834fd-665d-4084-b915-436b3ed6d38f" d="M28.71,12.64v-.23h0s0,0,0,0v-.69H48.57L38.53,0H18.85L9.24,11.68H9a.69.69,0,0,0-.69.69.72.72,0,0,0,.37.61V26.73l1-.23a.7.7,0,0,0,.14,0l.86-.17.22,0,.78-.13.28-.05.73-.1L13,26l.7-.08.35,0,.7-.06.35,0h.09v-7h5.69V25.9l.66.07.32,0c.47.06.93.13,1.38.22h.12a34.07,34.07,0,0,1,5.39,1.39l0,0A35.94,35.94,0,0,1,34.69,30,29.55,29.55,0,0,1,49,27.21V12.64Zm14.93,2.49h4V20h-4Zm-5.81,0h4V20h-4Zm-5.43,0h4V20h-4ZM18.85,1.06l8.43,10.62H10.1ZM28,26.69a35.38,35.38,0,0,0-4.6-1.11l-.09,0h0l-1.4-.21-.19,0h-.21V18.08h-7v7.06l-.53,0-.27,0H13.6l-.72.07-.33,0-.75.11-.28,0-.79.13h-.08l-.16,0-.87.17h0l-.09,0-.18,0V13.07H28Z"/></g></g></svg>